<svg width="1200" height="360" viewBox="0 0 1200 360" xmlns="http://www.w3.org/2000/svg" role="img" aria-labelledby="title desc">
  <title id="title">Garbanzo Logo</title>
  <desc id="desc">Stylized garbanzo bean icon with Garbanzo wordmark.</desc>

  <defs>
    <linearGradient id="bg" x1="0" y1="0" x2="1" y2="1">
      <stop offset="0%" stop-color="#fdf6e3" />
      <stop offset="100%" stop-color="#f5e7c6" />
    </linearGradient>
    <linearGradient id="bean" x1="0" y1="0" x2="0.9" y2="1">
      <stop offset="0%" stop-color="#d8b16e" />
      <stop offset="100%" stop-color="#b88942" />
    </linearGradient>
    <linearGradient id="shine" x1="0" y1="0" x2="1" y2="1">
      <stop offset="0%" stop-color="#f9e0a8" stop-opacity="0.8" />
      <stop offset="100%" stop-color="#f9e0a8" stop-opacity="0" />
    </linearGradient>
    <filter id="shadow" x="-20%" y="-20%" width="140%" height="140%">
      <feDropShadow dx="0" dy="4" stdDeviation="8" flood-color="#7a5a2b" flood-opacity="0.25" />
    </filter>
  </defs>

  <rect x="0" y="0" width="1200" height="360" fill="url(#bg)" rx="28" />

  <g transform="translate(70 38)" filter="url(#shadow)">
    <path d="M165 20c-48 2-84 33-99 72-16 42-7 94 19 129 25 34 67 54 110 56 45 2 86-15 110-48 26-34 32-83 18-124-15-42-56-80-103-85-18-2-36-2-55 0z" fill="url(#bean)" />
    <path d="M128 83c-17 1-33 13-42 27-10 15-13 36-8 54 6 19 21 35 40 42 19 7 42 5 58-7 15-11 23-30 24-48 1-19-6-38-21-52-13-12-32-18-51-16z" fill="#9f6d31" opacity="0.35" />
    <path d="M115 42c-26 8-48 29-57 56" stroke="url(#shine)" stroke-width="14" stroke-linecap="round" fill="none" />
  </g>

  <g transform="translate(360 88)">
    <text x="0" y="96" font-family="'Trebuchet MS', 'Segoe UI', sans-serif" font-size="120" font-weight="800" letter-spacing="2" fill="#3a2a18">GARBANZO</text>
    <text x="4" y="146" font-family="'Trebuchet MS', 'Segoe UI', sans-serif" font-size="34" font-weight="600" letter-spacing="1" fill="#6f5332">Community AI Bot for Group Chats</text>
  </g>
</svg>
