<svg xmlns="http://www.w3.org/2000/svg" width="1200" height="630" viewBox="0 0 1200 630" role="img" aria-label="WhatsApp QR linking placeholder">
  <defs>
    <linearGradient id="bg" x1="0" y1="0" x2="1" y2="1">
      <stop offset="0" stop-color="#e2f3e8"/>
      <stop offset="1" stop-color="#f7f1e3"/>
    </linearGradient>
  </defs>

  <rect x="0" y="0" width="1200" height="630" fill="url(#bg)"/>
  <circle cx="1060" cy="520" r="220" fill="#cfead8" opacity="0.7"/>

  <text x="70" y="120" font-family="ui-monospace, SFMono-Regular, Menlo, Monaco, Consolas, 'Liberation Mono', 'Courier New', monospace" font-size="44" font-weight="700" fill="#124b2a">WhatsApp QR Linking (Placeholder)</text>
  <text x="70" y="156" font-family="ui-monospace, SFMono-Regular, Menlo, Monaco, Consolas, 'Liberation Mono', 'Courier New', monospace" font-size="18" fill="#2d2d2d">Scan the terminal QR code: WhatsApp → Settings → Linked Devices.</text>

  <rect x="70" y="210" width="520" height="360" rx="18" fill="#ffffff" stroke="#d7d7d7"/>
  <text x="100" y="252" font-family="ui-monospace, SFMono-Regular, Menlo, Monaco, Consolas, 'Liberation Mono', 'Courier New', monospace" font-size="16" fill="#2d2d2d">Terminal</text>
  <rect x="100" y="276" width="460" height="260" rx="12" fill="#0c0f0d"/>
  <rect x="140" y="314" width="180" height="180" rx="10" fill="#ffffff"/>
  <g fill="#0c0f0d">
    <rect x="156" y="330" width="40" height="40"/>
    <rect x="212" y="330" width="20" height="20"/>
    <rect x="244" y="330" width="40" height="40"/>
    <rect x="156" y="386" width="20" height="20"/>
    <rect x="188" y="386" width="40" height="40"/>
    <rect x="244" y="406" width="20" height="20"/>
    <rect x="276" y="386" width="20" height="20"/>
    <rect x="156" y="442" width="40" height="40"/>
    <rect x="212" y="462" width="20" height="20"/>
    <rect x="244" y="442" width="40" height="40"/>
  </g>
  <text x="140" y="542" font-family="ui-monospace, SFMono-Regular, Menlo, Monaco, Consolas, 'Liberation Mono', 'Courier New', monospace" font-size="12" fill="#a7a7a7">(placeholder QR pattern)</text>

  <rect x="660" y="210" width="470" height="360" rx="40" fill="#124b2a" opacity="0.12"/>
  <rect x="700" y="235" width="390" height="310" rx="44" fill="#ffffff" stroke="#d7d7d7"/>
  <rect x="740" y="270" width="310" height="210" rx="18" fill="#e9f6ee" stroke="#b8e0c6"/>
  <text x="740" y="520" font-family="ui-monospace, SFMono-Regular, Menlo, Monaco, Consolas, 'Liberation Mono', 'Courier New', monospace" font-size="14" fill="#2d2d2d">Camera view (placeholder)</text>

  <path d="M590 392 C 640 360, 650 340, 700 320" fill="none" stroke="#124b2a" stroke-width="6" stroke-linecap="round"/>
  <path d="M684 314 L706 318 L696 338" fill="none" stroke="#124b2a" stroke-width="6" stroke-linecap="round"/>
</svg>
