<svg xmlns="http://www.w3.org/2000/svg" width="1200" height="630" viewBox="0 0 1200 630" role="img" aria-label="Catchup summary placeholder">
  <defs>
    <linearGradient id="bg" x1="0" y1="0" x2="1" y2="1">
      <stop offset="0" stop-color="#f7f1e3"/>
      <stop offset="1" stop-color="#e2f3e8"/>
    </linearGradient>
  </defs>

  <rect width="1200" height="630" fill="url(#bg)"/>
  <text x="70" y="120" font-family="ui-monospace, SFMono-Regular, Menlo, Monaco, Consolas, 'Liberation Mono', 'Courier New', monospace" font-size="44" font-weight="700" fill="#124b2a">Catchup Summary (Placeholder)</text>
  <text x="70" y="156" font-family="ui-monospace, SFMono-Regular, Menlo, Monaco, Consolas, 'Liberation Mono', 'Courier New', monospace" font-size="18" fill="#2d2d2d">"What did I miss?" recap of recent messages.</text>

  <rect x="70" y="215" width="520" height="360" rx="20" fill="#ffffff" stroke="#d7d7d7"/>
  <text x="110" y="260" font-family="ui-monospace, SFMono-Regular, Menlo, Monaco, Consolas, 'Liberation Mono', 'Courier New', monospace" font-size="16" fill="#2d2d2d">Recent chat (excerpt)</text>
  <rect x="110" y="285" width="440" height="48" rx="12" fill="#e7f0ff" stroke="#b9d0ff"/>
  <rect x="110" y="345" width="360" height="48" rx="12" fill="#e9f6ee" stroke="#b8e0c6"/>
  <rect x="110" y="405" width="420" height="48" rx="12" fill="#fffaf2" stroke="#ead9bf"/>
  <rect x="110" y="465" width="300" height="48" rx="12" fill="#e7f0ff" stroke="#b9d0ff"/>

  <path d="M610 395 C 660 365, 690 345, 740 315" fill="none" stroke="#124b2a" stroke-width="6" stroke-linecap="round"/>
  <path d="M722 307 L744 315 L732 335" fill="none" stroke="#124b2a" stroke-width="6" stroke-linecap="round"/>

  <rect x="740" y="215" width="390" height="360" rx="20" fill="#ffffff" stroke="#d7d7d7"/>
  <text x="780" y="260" font-family="ui-monospace, SFMono-Regular, Menlo, Monaco, Consolas, 'Liberation Mono', 'Courier New', monospace" font-size="16" fill="#2d2d2d">Summary</text>
  <rect x="780" y="285" width="320" height="250" rx="16" fill="#f8fbf9" stroke="#dfe9e3"/>
  <text x="810" y="330" font-family="ui-monospace, SFMono-Regular, Menlo, Monaco, Consolas, 'Liberation Mono', 'Courier New', monospace" font-size="14" fill="#124b2a">- Plans: Saturday meetup @ 2pm</text>
  <text x="810" y="360" font-family="ui-monospace, SFMono-Regular, Menlo, Monaco, Consolas, 'Liberation Mono', 'Courier New', monospace" font-size="14" fill="#124b2a">- Transit: Red Line delays</text>
  <text x="810" y="390" font-family="ui-monospace, SFMono-Regular, Menlo, Monaco, Consolas, 'Liberation Mono', 'Courier New', monospace" font-size="14" fill="#124b2a">- Action: vote on venue poll</text>
  <text x="810" y="420" font-family="ui-monospace, SFMono-Regular, Menlo, Monaco, Consolas, 'Liberation Mono', 'Courier New', monospace" font-size="14" fill="#124b2a">- Note: bring umbrella</text>
</svg>
